Coordinates
version=1
nRows=8
nColumns=36
inDegrees=yes

Units are S.I. units (second, meters, Newtons, ...)
If the header above contains a line with 'inDegrees', this indicates whether rotational values are in degrees (yes) or radians (no).

endheader
time	pelvis_tilt	pelvis_list	pelvis_rotation	pelvis_tx	pelvis_ty	pelvis_tz	hip_flexion_r	hip_adduction_r	hip_rotation_r	knee_angle_r	knee_angle_r_beta	ankle_angle_r	subtalar_angle_r	mtp_angle_r	hip_flexion_l	hip_adduction_l	hip_rotation_l	knee_angle_l	knee_angle_l_beta	ankle_angle_l	subtalar_angle_l	mtp_angle_l	lumbar_extension	lumbar_bending	lumbar_rotation	arm_flex_r	arm_add_r	arm_rot_r	elbow_flex_r	pro_sup_r	arm_flex_l	arm_add_l	arm_rot_l	elbow_flex_l	pro_sup_l
      0.00000000	     -5.40089792	     -1.49706797	     -1.47405416	     -0.94810410	      1.25978525	     -0.01061003	     12.51783035	      1.67876803	      0.68070920	     13.89256782	      0.24247105	      4.95768069	    -19.19031609	     -5.37831832	     11.80640723	     -4.50998689	      1.93001693	     15.20003992	      0.26529074	     13.14401245	     -5.59283999	     -5.37831832	    -12.18630713	      0.81388380	     -1.79687214	      0.54250310	     -7.82020473	      8.75059247	     25.68017900	     77.76286141	      0.16646272	     -5.91794768	      7.33978333	     24.09762574	     73.38788139
      0.00416670	     -8.28856127	     -1.18006493	     -1.46888554	     -0.94736174	      1.25799039	     -0.01101478	     16.71847504	      1.71733176	      1.20645346	     16.36207253	      0.28557204	      8.95291193	    -17.72479110	     -5.69061393	     15.80839059	     -3.40694002	      4.08290992	     16.88925963	      0.29477319	     13.53936326	     -6.22280014	     -5.69061393	     -8.36590616	      0.71170912	     -2.04548132	     -0.30077459	     -6.79898455	      6.09919758	     24.18941870	     75.75219390	     -0.19205032	     -4.76870031	      4.87019153	     22.61118251	     72.12633692
      0.00833330	     -9.60223345	     -0.66766874	     -1.58704870	     -0.94678607	      1.25588642	     -0.01000944	     17.82071063	      1.26726822	      0.68585281	     15.65086684	      0.27315916	      8.82144633	    -17.89509597	     -6.39007570	     17.18452287	     -2.98041493	      4.70343763	     16.92351558	      0.29537107	     12.99024645	     -7.71765948	     -6.39007570	     -6.44780762	     -0.02133667	     -1.56244555	     -1.82402138	     -5.61813186	     -0.94141161	     25.13296994	     80.36533388	     -0.93369264	     -4.28896288	     -0.20439915	     23.14811064	     81.46940531
      0.01250000	     -9.10067994	     -0.47731462	     -1.59842115	     -0.94712781	      1.25929461	     -0.00986100	     17.02514341	      1.09749970	      0.65637943	     15.15367586	      0.26448154	      8.61801907	    -17.88983370	     -6.54744710	     16.26102247	     -2.69062892	      5.53324423	     16.28881509	      0.28429345	     12.27472891	     -9.53681799	     -6.54744710	     -7.08615434	     -0.33030177	     -1.37735106	     -1.97235532	     -5.45843055	     -1.47085371	     25.43811772	     79.62842574	     -0.92333505	     -4.54476205	      0.07927108	     23.39575883	     81.07845354
      0.01666670	     -9.22605410	     -0.47154585	     -1.56090575	     -0.94670146	      1.25935910	     -0.00980806	     16.91538589	      1.14858473	      0.58360758	     14.66533971	      0.25595846	      8.13622240	    -18.16285897	     -6.62621964	     16.22718274	     -2.61625705	      5.95149337	     15.97497758	      0.27881596	     12.04968622	    -10.31363489	     -6.62621964	     -6.87375353	     -0.23698043	     -1.24219547	     -2.26431334	     -5.47770345	     -1.54045227	     25.70352201	     78.70047377	     -0.97531821	     -4.55246834	      0.38920607	     23.44760231	     80.23307032
      0.02083330	     -8.24123348	     -0.46971680	     -1.53346464	     -0.94664997	      1.26199969	     -0.01017466	     15.61594549	      1.16052343	      0.62824795	     14.20224969	      0.24787602	      7.89710065	    -18.38412054	     -6.72876181	     14.91935670	     -2.51675756	      6.40053982	     15.52219204	      0.27091336	     11.57127492	    -11.45734411	     -6.72876181	     -8.35570994	     -0.20140543	     -0.97529990	     -2.23573543	     -5.61400443	     -1.26498752	     26.33275675	     79.22137243	     -0.46707665	     -4.69786340	      1.58476870	     23.71254299	     80.90880992
      0.02500000	     -8.31469867	     -0.51440501	     -1.46194115	     -0.94652697	      1.26340533	     -0.00991649	     15.52799868	      1.21491322	      0.53391371	     13.83583323	      0.24148084	      7.52945931	    -18.55080850	     -6.82499632	     14.98179123	     -2.51130511	      6.59653036	     15.47540537	      0.27009678	     11.28398603	    -11.85081162	     -6.82499632	     -8.22275595	     -0.10222249	     -0.89808474	     -2.31719192	     -5.60244593	     -1.24908353	     26.25889280	     78.41381633	     -0.28940082	     -4.52909836	      1.52475692	     23.55884136	     79.96095384
      0.02916670	     -7.79724978	     -0.50455705	     -1.38812516	     -0.94679091	      1.26189319	     -0.00995684	     14.85500052	      1.23140023	      0.66414036	     13.56641113	      0.23677854	      7.33933327	    -18.84984651	     -7.01632214	     14.38463865	     -2.42985306	      6.92538153	     15.33989841	      0.26773173	     10.97311761	    -12.50947055	     -7.01632214	     -9.05527484	     -0.11959456	     -0.89721311	     -2.15036814	     -5.61127457	     -1.66974456	     26.47424614	     84.37631300	     -0.06860629	     -4.45003996	      0.19811299	     23.87199247	     85.19956855
